<?xml version="1.0" standalone="no"?>
<!DOCTYPE svg PUBLIC "-//W3C//DTD SVG 20010904//EN"
 "http://www.w3.org/TR/2001/REC-SVG-20010904/DTD/svg10.dtd">
<svg version="1.0" xmlns="http://www.w3.org/2000/svg"
 width="700.000000pt" height="700.000000pt" viewBox="0 0 700.000000 700.000000"
 preserveAspectRatio="xMidYMid meet">
<metadata>
Created by potrace 1.14, written by Peter Selinger 2001-2017
</metadata>
<g transform="translate(0.000000,700.000000) scale(0.100000,-0.100000)"
fill="#000000" stroke="none">
<path d="M0 3500 l0 -3500 3500 0 3500 0 0 3500 0 3500 -3500 0 -3500 0 0
-3500z m3622 2730 c303 -93 397 -471 173 -695 -180 -180 -480 -158 -630 47
-61 82 -80 143 -79 253 0 67 6 104 22 145 81 205 306 314 514 250z m852 -1145
c1104 -129 1887 -976 1933 -2090 9 -223 -25 -457 -128 -878 -32 -129 -44 -167
-55 -163 -8 3 -180 54 -382 112 -202 59 -370 110 -374 113 -4 3 9 69 28 146
84 331 109 496 101 659 -24 518 -299 948 -742 1161 -230 111 -400 145 -726
145 l-219 0 0 -1400 0 -1400 180 0 180 0 0 -406 0 -405 -857 4 c-905 4 -899 4
-1118 52 -340 75 -672 234 -929 444 -161 132 -336 333 -448 513 -247 397 -370
937 -314 1378 32 247 148 765 170 757 6 -3 175 -52 376 -111 201 -59 370 -109
377 -111 8 -2 1 -45 -24 -142 -83 -331 -108 -492 -100 -662 23 -521 293 -950
732 -1161 118 -57 193 -83 335 -117 94 -22 133 -26 363 -30 l257 -5 0 1401 0
1401 -180 0 -180 0 0 405 0 405 808 0 c657 0 831 -3 936 -15z"/>
</g>
</svg>
