<svg xmlns="http://www.w3.org/2000/svg" viewBox="0 0 300 300"><defs><style>.cls-1{fill:#694fca;}.cls-2{fill:#fff;}</style></defs><g id="Layer_1" data-name="Layer 1"><rect class="cls-1" width="300" height="300"/></g><g id="Layer_2" data-name="Layer 2"><path class="cls-2" d="M119.89,270.87a101.05,101.05,0,0,1-35.65-6.56,90.81,90.81,0,0,1-30.47-19l-.07-.06A90,90,0,0,1,32.89,215a97.52,97.52,0,0,1-7.61-38.92c0-10.35,4.73-29.57,5.26-31.72l2.12-8.45,33.28,9.74-2,7.85c-1.12,4.3-4,16.75-4,22.58a63.68,63.68,0,0,0,4.75,25.22l0,.12a56.74,56.74,0,0,0,12.68,18.72A58.55,58.55,0,0,0,96.52,232a64.33,64.33,0,0,0,22.72,4.22h13.28V116H116.87V81.32H180.1a100.53,100.53,0,0,1,35.68,6.57,90.89,90.89,0,0,1,30.45,19l.07.07a91.27,91.27,0,0,1,20.81,30.27,98.28,98.28,0,0,1,7.61,39c0,10.35-4.73,29.56-5.26,31.72l-2.11,8.43L234,206.62l2-7.86c1.11-4.3,4-16.75,4-22.58V176a62.24,62.24,0,0,0-4.79-25.16,56.61,56.61,0,0,0-12.7-18.75,58.41,58.41,0,0,0-19.12-11.87A63.8,63.8,0,0,0,180.68,116h-13.2V236.24h15.65v34.63Z"/><circle class="cls-2" cx="150" cy="50.11" r="17.99"/></g></svg>