<?xml version="1.0" encoding="utf-8"?>
<!-- Generator: Adobe Illustrator 24.1.2, SVG Export Plug-In . SVG Version: 6.00 Build 0)  -->
<svg version="1.1" id="Layer_1" xmlns="http://www.w3.org/2000/svg" xmlns:xlink="http://www.w3.org/1999/xlink" x="0px" y="0px"
	 viewBox="0 0 358 409" style="enable-background:new 0 0 358 409;" xml:space="preserve">
<style type="text/css">
	.st0{fill:#1F72B5;}
	.st1{fill:#51A3DC;}
	.st2{fill:#EBEBEB;}
	.st3{fill:#CECECE;}
</style>
<polygon id="XMLID_11_" class="st0" points="40.5,359.6 9.7,13.9 348.3,13.9 317.5,359.5 178.7,398 "/>
<polygon id="XMLID_10_" class="st1" points="179,368.7 291.1,337.6 317.5,42.2 179,42.2 "/>
<polygon id="XMLID_35_" class="st2" points="68.9,122 64.8,82 293.2,82 290.5,128.3 194,171 286.5,171 276.6,302.4 183.2,327.5 
	86.5,304 80.5,237.3 123.2,237.3 125.6,272.5 181.7,283 233.4,267.1 235.8,210.8 76.8,210.8 73.8,169 179,122.9 "/>
<g id="XMLID_2_">
	<polygon id="XMLID_39_" class="st3" points="73.8,169 76.8,210.8 179,210.8 179,122.9 	"/>
	<polygon id="XMLID_40_" class="st3" points="125.6,272.5 123.2,237.3 80.5,237.3 86.5,304 179,326.4 179,282.5 	"/>
	<polygon id="XMLID_41_" class="st3" points="64.8,82 68.9,122 179,122.9 179,82 	"/>
</g>
</svg>
