<svg id="Layer_1" data-name="Layer 1" xmlns="http://www.w3.org/2000/svg" viewBox="0 0 450.9 511.9"><defs><style>.cls-1{fill:#f0dc3f;}.cls-2{fill:#f4e678;}.cls-3{fill:#70716f;}.cls-4{fill:#323330;}.cls-5{fill:#333330;}</style></defs><path class="cls-1" d="M49.54,19.78h450.9c-.56,6.63-39.66,445.57-40.7,457.59a2.93,2.93,0,0,1-2.48,3.06c-53.11,14.86-174.37,48.73-181.77,51.25h-2c-.69-.26-1.36-.59-2.07-.79q-88-24.87-176-49.72c-5-1.43-5-1.39-5.39-6.52C88.65,458.81,50.44,30.14,49.54,19.78ZM275.45,283.65l.07.19v89.32a.52.52,0,0,0-.08.3,5,5,0,0,1-2.43-.2c-10.73-2.93-21.49-5.75-32.21-8.75-2-.55-2.53-.07-3,1.81q-6.45,25.1-13.1,50.12c-.46,1.77-.27,2.59,1.72,3.13,14.76,4,29.47,8.08,44.2,12.12,1.58.43,3.11,1.23,4.84.93l.08.19c0,18.83,0,37.66-.08,56.48,0,2.17.78,2.32,2.52,1.82,6.24-1.78,12.5-3.51,18.76-5.23q62.58-17.2,125.18-34.36c1.95-.53,2.84-1.48,3-3.35.36-4.8,33.7-383,34.21-387.82.39-3.59.52-3.58-3.13-3.58H278.79c-3.29,0-3.29,0-3.3,3.29q0,26.37-.05,52.74l-138.93,0c-3.17,0-3.11,0-2.83,3.09,1.13,12.51,23.51,270.12,24.53,282.56a2.86,2.86,0,0,0,2.49,3q17.12,4.54,34.13,9.45c2.2.64,2.67-.07,3.14-1.92,4.12-15.93,8.32-31.85,12.45-47.79.52-2,1.26-3.93,1.06-6.1-.81-8.54-4.72-54.65-6-69.15-.16-1.8.33-2.25,2.09-2.23,7,.09,14,0,21,.09,1.72,0,2.44-.47,2.87-2.16q6.75-26.21,13.67-52.37c.58-2.18.15-2.58-2-2.56-13.33.1-26.65,0-40,.08-1.75,0-2.54-.22-2.7-2.32q-2.13-26.5-4.59-53c-.2-2.21.1-2.79,2.42-2.77,20.15.09,40.31,0,60.47.1,1.77,0,2.42-.54,2.83-2.19,1.94-7.74,11.28-42.75,13.9-52.54,0,1.33.1,2.66.1,4q0,54.29,0,108.57l-.08.19c-1.48-.24-1.28,1-1.49,1.77q-4.27,16.26-8.52,32.54c-1.95,7.46-3.91,14.91-5.91,22.52Z" transform="translate(-49.54 -19.78)"/><path class="cls-2" d="M275.53,226.9q0-54.28,0-108.57c0-1.33-.07-2.66-.1-4l.05-1.27q0-26.37.05-52.73c0-3.29,0-3.29,3.3-3.29H456c3.65,0,3.52,0,3.13,3.57-.51,4.79-33.85,383-34.21,387.82-.15,1.88-1,2.82-3,3.35q-62.61,17.11-125.18,34.36c-6.26,1.73-12.52,3.45-18.76,5.23-1.74.5-2.53.35-2.52-1.81.08-18.83.07-37.66.08-56.49.55-.17,1.1-.36,1.66-.52Q332.77,417.25,388.35,402c2.56-.69,3.37-1.89,3.57-4.36q2.47-30.36,5.14-60.71,3.38-38.79,6.82-77.59c1.92-22.14,3.76-44.28,5.68-66.42q3.36-38.68,6.84-77.34c.17-1.89-.2-2.62-2.31-2.6-10.08.11-20.16,0-30.24,0q-38.48,0-77,0c-1.63,0-2.68.11-3.19,2.11q-6.58,25.88-13.44,51.69c-.52,2,.08,2.39,1.83,2.22a16.82,16.82,0,0,1,1.74,0q29,0,58,0c1.16,0,2.69-.65,2.46,1.82q-2.46,26.73-4.62,53.48c-.19,2.46-1.13,2.71-3.16,2.71-18.33-.06-36.65,0-55,0C286.19,227,280.86,226.94,275.53,226.9Z" transform="translate(-49.54 -19.78)"/><path class="cls-3" d="M275.53,226.9c5.33,0,52.63.09,71,.15,2,0,3-.25,3.16-2.71q2.12-26.76,4.62-53.48c.23-2.47-1.3-1.82-2.46-1.82-19.33,0-59.15-.07-59.72,0-1.75.17-2.35-.26-1.83-2.22q6.83-25.81,13.44-51.69c.51-2,1.56-2.11,3.19-2.11q38.48,0,77,0c10.08,0,20.16.06,30.24,0,2.11,0,2.48.71,2.31,2.6-2.31,25.77-22.83,261.82-24.48,282.06-.2,2.47-1,3.67-3.57,4.36q-55.61,15.17-111.16,30.56c-.56.16-1.11.35-1.66.52l-.08-.18q0-29.58,0-59.16a.58.58,0,0,1,.08-.31c6.36-1.28,46.08-12.28,59.74-15.9,1.59-.42,2.26-1,2.37-2.8.27-4.4,4.71-49.92,6.56-68.29.21-2.14-.34-2.48-2.27-2.47-15.73.06-60,.11-66.4.15l-.07-.2V227.09Z" transform="translate(-49.54 -19.78)"/><path class="cls-4" d="M275.44,112.79l-.05,1.28q-3.94,14.69-7.87,29.36c-2,7.72-4.09,15.43-6,23.18-.42,1.64-1.07,2.19-2.84,2.19-20.16-.08-40.31,0-60.47-.11-2.32,0-2.62.57-2.41,2.78q2.46,26.47,4.58,53c.17,2.1,1,2.32,2.7,2.32,13.33-.06,26.66,0,40-.08,2.19,0,2.62.37,2,2.56q-6.94,26.16-13.66,52.37c-.44,1.68-1.15,2.18-2.88,2.15-7-.11-14,0-21-.08-1.76,0-2.25.42-2.08,2.23,1.31,14.5,2.51,29,3.76,43.53.74,8.54,1.45,17.08,2.26,25.62.2,2.16-.54,4.11-1.06,6.1C206.29,377.11,202.08,393,198,409c-.48,1.85-.95,2.55-3.14,1.92-11.34-3.3-22.73-6.42-34.13-9.45a2.86,2.86,0,0,1-2.49-3c-1-12.44-2.12-24.88-3.2-37.31q-2.13-24.51-4.27-49-2.12-24.25-4.22-48.51-2.4-27.73-4.82-55.47-2.35-27.36-4.71-54.72-1.62-18.78-3.31-37.56c-.28-3.08-.34-3.08,2.82-3.08Z" transform="translate(-49.54 -19.78)"/><path class="cls-2" d="M275.52,284.13c6.4,0,12.81-.11,19.21-.11,15.73,0,31.46,0,47.19,0,1.93,0,2.48.33,2.27,2.48-1.85,18.36-3.53,36.75-5.28,55.12-.41,4.39-1,8.76-1.28,13.16-.11,1.76-.78,2.38-2.37,2.8-13.66,3.62-27.29,7.35-40.94,11-6.26,1.66-12.44,3.62-18.8,4.9Z" transform="translate(-49.54 -19.78)"/><path class="cls-5" d="M275.45,373.47q0,29.58,0,59.16c-1.73.29-3.26-.51-4.85-.94-14.73-4-29.44-8.16-44.19-12.12-2-.54-2.19-1.36-1.72-3.12q6.62-25.05,13.09-50.13c.49-1.88,1.05-2.36,3-1.81,10.71,3,21.47,5.82,32.2,8.75A5.09,5.09,0,0,0,275.45,373.47Z" transform="translate(-49.54 -19.78)"/><path class="cls-5" d="M275.45,226.81v56.84H259.53c2-7.61,4-15.07,5.91-22.53q4.26-16.26,8.52-32.53C274.17,227.78,274,226.57,275.45,226.81Z" transform="translate(-49.54 -19.78)"/></svg>