<?xml version="1.0" encoding="utf-8"?>
<!-- Generator: Adobe Illustrator 24.1.2, SVG Export Plug-In . SVG Version: 6.00 Build 0)  -->
<svg version="1.1" id="Layer_1" xmlns="http://www.w3.org/2000/svg" xmlns:xlink="http://www.w3.org/1999/xlink" x="0px" y="0px"
	 viewBox="0 0 278.2 287.5" style="enable-background:new 0 0 278.2 287.5;" xml:space="preserve">
<style type="text/css">
	.st0{fill:#694FCA;}
	.st1{enable-background:new    ;}
	.st2{fill:#FFFFFF;}
</style>
<path class="st0" d="M103.9,236.4c-13.6,0.1-27.1-2.4-39.9-7.2c-12.3-4.6-23.5-11.6-33.1-20.6c-9.7-9.3-17.4-20.5-22.6-32.9
	C2.8,163,0,148.7,0,133.1c0-11.5,6-35.5,6-35.5l20.5,6c0,0-5.1,19.7-5.1,29.5c0,12.6,2.2,24.1,6.5,34.1c4,9.7,10,18.5,17.5,25.8
	c7.6,7.1,16.5,12.6,26.2,16.3c10.1,3.8,20.7,5.8,31.5,5.7h25.1V51.2h-18.7V29.8h64.8c13.6-0.1,27.2,2.4,39.9,7.2
	c12.3,4.6,23.5,11.6,33.1,20.6c9.7,9.3,17.3,20.5,22.6,32.9c5.5,12.8,8.3,27.1,8.3,42.7c0,11.5-6,35.5-6,35.5l-20.6-6
	c0,0,5.1-19.7,5.1-29.5c0.2-11.7-2-23.3-6.5-34.1c-4-9.7-10-18.5-17.5-25.8c-7.6-7.1-16.5-12.6-26.2-16.3c-10-3.8-20.7-5.8-31.5-5.7
	h-25V215h18.7v21.4H103.9z"/>
<circle class="st0" cx="139.1" cy="11.5" r="11.5"/>
<g class="st1">
	<path class="st2" d="M3.6,287.1c-0.8,0.3-1.7,0.5-2.7,0.5v-2.2c0.6,0,1.2-0.2,1.8-0.4s1-0.5,1.4-0.9c0.4-0.4,0.7-0.8,0.9-1.3
		c0.2-0.5,0.3-1.2,0.3-1.8v-14.7H1V264h6.7v17c0,1-0.2,2-0.5,2.8s-0.8,1.5-1.4,2C5.2,286.3,4.5,286.8,3.6,287.1z"/>
	<path class="st2" d="M23.5,283c-1.2,0.5-2.5,0.8-3.9,0.8c-1.4,0-2.7-0.3-3.9-0.8c-1.2-0.5-2.3-1.2-3.2-2.1
		c-0.9-0.9-1.6-1.9-2.1-3.2c-0.5-1.2-0.8-2.5-0.8-3.9c0-1.4,0.3-2.6,0.8-3.9c0.5-1.2,1.2-2.3,2.1-3.2c0.9-0.9,1.9-1.6,3.2-2.2
		s2.5-0.8,3.9-0.8c1.4,0,2.6,0.3,3.9,0.8c1.2,0.5,2.3,1.3,3.2,2.2c0.9,0.9,1.6,2,2.2,3.2c0.5,1.2,0.8,2.5,0.8,3.9
		c0,1.4-0.3,2.7-0.8,3.9c-0.5,1.2-1.3,2.3-2.2,3.2C25.8,281.7,24.7,282.4,23.5,283z M16.7,280.9c0.9,0.4,1.9,0.6,3,0.6
		c1.1,0,2.1-0.2,3-0.6c0.9-0.4,1.7-1,2.5-1.7c0.7-0.7,1.2-1.5,1.6-2.4c0.4-0.9,0.6-1.9,0.6-3s-0.2-2.1-0.6-3
		c-0.4-0.9-0.9-1.8-1.6-2.5c-0.7-0.7-1.5-1.3-2.5-1.7c-0.9-0.4-1.9-0.6-3-0.6c-1.1,0-2.1,0.2-3,0.6s-1.7,1-2.4,1.7
		c-0.7,0.7-1.3,1.5-1.7,2.5c-0.4,0.9-0.6,1.9-0.6,3s0.2,2.1,0.6,3c0.4,0.9,1,1.8,1.7,2.4C14.9,279.9,15.7,280.5,16.7,280.9z"/>
	<path class="st2" d="M39.9,283.4c-0.7,0.3-1.5,0.4-2.2,0.4c-0.7,0-1.4-0.1-2.1-0.2c-0.7-0.2-1.3-0.4-1.8-0.6
		c-0.6-0.3-1.1-0.6-1.5-0.9c-0.4-0.3-0.8-0.7-1-1.1v-3.2h2.2v2.5c0.5,0.4,1.1,0.7,1.7,1c0.7,0.3,1.4,0.4,2.3,0.4
		c0.5,0,0.9-0.1,1.4-0.2c0.4-0.1,0.8-0.3,1.2-0.6c0.3-0.3,0.6-0.6,0.8-1c0.2-0.4,0.3-0.9,0.3-1.4c0-0.3,0-0.7-0.1-1
		c0-0.3-0.1-0.6-0.3-0.9c-0.2-0.4-0.5-0.7-0.9-0.9s-0.7-0.5-1.1-0.7c-0.7-0.3-1.4-0.5-2.2-0.7c-0.8-0.2-1.5-0.5-2.2-0.8
		c-0.7-0.4-1.3-0.8-1.7-1.5c-0.5-0.6-0.7-1.5-0.7-2.7c0-0.6,0.1-1.2,0.3-1.8s0.5-1.2,0.9-1.7c0.4-0.5,1-0.9,1.7-1.2s1.6-0.5,2.6-0.5
		c0.3,0,0.7,0,1.1,0.1c0.4,0,0.8,0.1,1.2,0.2c0.4,0.1,0.9,0.3,1.3,0.5c0.5,0.2,0.9,0.5,1.4,0.9v2.7h-2.2v-1.6
		c-0.4-0.1-0.8-0.3-1.2-0.4c-0.5-0.1-1-0.2-1.5-0.2s-1,0.1-1.5,0.3c-0.4,0.2-0.7,0.4-1,0.7c-0.2,0.3-0.4,0.6-0.5,1
		c-0.1,0.4-0.2,0.7-0.2,1.2c0,0.6,0.1,1,0.4,1.4c0.3,0.3,0.6,0.6,1,0.9c0.7,0.4,1.5,0.7,2.4,0.9c0.9,0.3,1.8,0.6,2.7,1
		c0.8,0.4,1.4,0.9,1.9,1.7c0.5,0.8,0.7,1.9,0.7,3.2c0,0.8-0.2,1.6-0.5,2.3c-0.3,0.7-0.7,1.2-1.2,1.7
		C41.2,282.7,40.6,283.1,39.9,283.4z"/>
	<path class="st2" d="M44.9,283.5v-2.2h1.6v-15.1h-1.6V264h13.6v4.3h-2.2v-2.1h-7.5v6.4h8.6v2.2h-8.6v6.5h7.9v-2.1h2.2v4.3H44.9z"/>
	<path class="st2" d="M69.2,283.5v-2.2h2.3c1.3-3.1,2.6-6.1,3.9-9.1c1.3-3,2.6-6,3.9-9.1c1.3,3.1,2.6,6.1,3.9,9.1
		c1.3,3,2.6,6,3.9,9.1h2.3v2.2h-6.2v-2.2h1.6c-0.4-0.9-0.8-1.9-1.2-2.8c-0.4-0.9-0.8-1.8-1.2-2.8h-6.1c-0.5,1.2-0.9,2.1-1.2,2.8
		s-0.7,1.5-1.2,2.8h1.6v2.2H69.2z M78,271.4c-0.3,0.8-0.6,1.5-0.9,2.2h4.2l-1.9-4.4l-0.3-0.9c-0.1,0.3-0.1,0.5-0.2,0.6
		c0,0.1-0.1,0.2-0.1,0.3C78.6,269.9,78.3,270.6,78,271.4z"/>
	<path class="st2" d="M93.6,283.1c-0.3,0.3-0.6,0.4-1,0.4c-0.4,0-0.7-0.1-1-0.4c-0.3-0.3-0.4-0.6-0.4-1s0.1-0.8,0.4-1.1
		c0.3-0.3,0.6-0.4,1-0.4c0.4,0,0.7,0.1,1,0.4c0.3,0.3,0.4,0.6,0.4,1.1S93.9,282.8,93.6,283.1z"/>
	<path class="st2" d="M104.2,283.5v-2.2h1.3v-15.1h-1.3V264h5.9c1.3,0,2.6,0.2,3.8,0.7c1.2,0.5,2.2,1.1,3.1,2
		c0.9,0.9,1.6,1.9,2.1,3.1c0.5,1.2,0.8,2.6,0.8,4.1c0,1.1-0.2,2.2-0.6,3.4s-1,2.2-1.9,3.1c-0.9,0.9-2,1.7-3.3,2.3
		c-1.4,0.6-3,0.9-5,0.9H104.2z M107.8,281.3h2c1.1,0,2.1-0.2,3.1-0.5c0.9-0.4,1.8-0.9,2.5-1.5c0.7-0.7,1.2-1.4,1.6-2.4
		c0.4-0.9,0.6-2,0.6-3.1c0-1.2-0.2-2.2-0.6-3.1c-0.4-0.9-0.9-1.7-1.6-2.4c-0.7-0.7-1.5-1.2-2.5-1.5c-0.9-0.4-2-0.5-3.1-0.5h-2V281.3
		z"/>
	<path class="st2" d="M121.8,283.5v-2.2h1.6v-15.1h-1.6V264h13.6v4.3h-2.2v-2.1h-7.5v6.4h8.6v2.2h-8.6v6.5h7.9v-2.1h2.2v4.3H121.8z"
		/>
	<path class="st2" d="M158.8,283.4c-0.8,0.3-1.7,0.4-2.7,0.4c-1.4,0-2.7-0.3-3.9-0.8c-1.2-0.5-2.3-1.2-3.2-2.1
		c-0.9-0.9-1.6-1.9-2.1-3.2c-0.5-1.2-0.8-2.5-0.8-3.9s0.3-2.7,0.8-3.9c0.5-1.2,1.2-2.3,2.1-3.2c0.9-0.9,1.9-1.6,3.2-2.1
		c1.2-0.5,2.5-0.8,3.9-0.8c0.9,0,1.8,0.1,2.7,0.4c0.8,0.2,1.7,0.6,2.4,1v3.1H159v-1.7c-0.5-0.2-0.9-0.4-1.4-0.5
		c-0.5-0.1-1-0.2-1.5-0.2c-1.1,0-2.1,0.2-3,0.6c-0.9,0.4-1.7,1-2.4,1.7c-0.7,0.7-1.3,1.6-1.7,2.5c-0.4,0.9-0.6,2-0.6,3
		s0.2,2.1,0.6,3c0.4,0.9,1,1.8,1.7,2.5c0.7,0.7,1.5,1.3,2.4,1.7c0.9,0.4,1.9,0.6,3,0.6c0.7,0,1.4-0.1,2-0.3c0.6-0.2,1.3-0.4,1.8-0.8
		l1.3,1.8C160.4,282.8,159.6,283.1,158.8,283.4z"/>
	<path class="st2" d="M177,283c-1.2,0.5-2.5,0.8-3.9,0.8c-1.4,0-2.7-0.3-3.9-0.8c-1.2-0.5-2.3-1.2-3.2-2.1c-0.9-0.9-1.6-1.9-2.1-3.2
		c-0.5-1.2-0.8-2.5-0.8-3.9c0-1.4,0.3-2.6,0.8-3.9c0.5-1.2,1.2-2.3,2.1-3.2c0.9-0.9,1.9-1.6,3.2-2.2c1.2-0.5,2.5-0.8,3.9-0.8
		c1.4,0,2.6,0.3,3.9,0.8s2.3,1.3,3.2,2.2c0.9,0.9,1.6,2,2.2,3.2c0.5,1.2,0.8,2.5,0.8,3.9c0,1.4-0.3,2.7-0.8,3.9
		c-0.5,1.2-1.3,2.3-2.2,3.2C179.2,281.7,178.2,282.4,177,283z M170.1,280.9c0.9,0.4,1.9,0.6,3,0.6s2.1-0.2,3-0.6
		c0.9-0.4,1.7-1,2.5-1.7c0.7-0.7,1.2-1.5,1.6-2.4c0.4-0.9,0.6-1.9,0.6-3s-0.2-2.1-0.6-3c-0.4-0.9-0.9-1.8-1.6-2.5
		c-0.7-0.7-1.5-1.3-2.5-1.7c-0.9-0.4-1.9-0.6-3-0.6s-2.1,0.2-3,0.6c-0.9,0.4-1.7,1-2.4,1.7c-0.7,0.7-1.3,1.5-1.7,2.5
		c-0.4,0.9-0.6,1.9-0.6,3s0.2,2.1,0.6,3c0.4,0.9,1,1.8,1.7,2.4C168.4,279.9,169.2,280.5,170.1,280.9z"/>
	<path class="st2" d="M185.1,283.5v-2.2h1.3v-15.1h-1.3V264h5.9c0.6,0,1.3,0.1,2.1,0.3c0.8,0.2,1.5,0.5,2.2,0.9s1.2,1,1.7,1.6
		c0.4,0.7,0.7,1.5,0.7,2.4c0,1.4-0.3,2.6-1,3.5c-0.7,0.9-1.7,1.5-3.1,1.8l3.1,6.7h2.6v2.2h-4.1l-4.1-8.7c-0.3,0-0.5,0-0.6,0
		c-0.1,0-0.3,0-0.6,0h-1.2v6.5h3.2v2.2H185.1z M188.6,272.6h2.4c0.8,0,1.5-0.1,2-0.3s1-0.5,1.3-0.8s0.5-0.7,0.7-1.1s0.2-0.8,0.2-1.1
		c0-0.4-0.1-0.8-0.3-1.2c-0.2-0.4-0.5-0.7-0.9-1c-0.4-0.3-0.8-0.5-1.3-0.7c-0.5-0.2-1.1-0.3-1.6-0.3h-2.5V272.6z"/>
	<path class="st2" d="M201.1,283.5v-2.2h1.3v-15.1h-1.3V264h5.9c1.3,0,2.6,0.2,3.8,0.7c1.2,0.5,2.2,1.1,3.1,2
		c0.9,0.9,1.6,1.9,2.1,3.1c0.5,1.2,0.8,2.6,0.8,4.1c0,1.1-0.2,2.2-0.6,3.4c-0.4,1.2-1,2.2-1.9,3.1c-0.9,0.9-2,1.7-3.3,2.3
		c-1.4,0.6-3,0.9-5,0.9H201.1z M204.8,281.3h2c1.1,0,2.1-0.2,3.1-0.5s1.8-0.9,2.5-1.5c0.7-0.7,1.2-1.4,1.6-2.4s0.6-2,0.6-3.1
		c0-1.2-0.2-2.2-0.6-3.1c-0.4-0.9-0.9-1.7-1.6-2.4c-0.7-0.7-1.5-1.2-2.5-1.5s-2-0.5-3.1-0.5h-2V281.3z"/>
	<path class="st2" d="M232.6,283c-1.2,0.5-2.5,0.8-3.9,0.8c-1.4,0-2.7-0.3-3.9-0.8c-1.2-0.5-2.3-1.2-3.2-2.1
		c-0.9-0.9-1.6-1.9-2.1-3.2c-0.5-1.2-0.8-2.5-0.8-3.9c0-1.4,0.3-2.6,0.8-3.9c0.5-1.2,1.2-2.3,2.1-3.2c0.9-0.9,1.9-1.6,3.2-2.2
		c1.2-0.5,2.5-0.8,3.9-0.8c1.4,0,2.6,0.3,3.9,0.8s2.3,1.3,3.2,2.2c0.9,0.9,1.6,2,2.2,3.2c0.5,1.2,0.8,2.5,0.8,3.9
		c0,1.4-0.3,2.7-0.8,3.9c-0.5,1.2-1.3,2.3-2.2,3.2C234.9,281.7,233.8,282.4,232.6,283z M225.8,280.9c0.9,0.4,1.9,0.6,3,0.6
		s2.1-0.2,3-0.6c0.9-0.4,1.7-1,2.5-1.7c0.7-0.7,1.2-1.5,1.6-2.4c0.4-0.9,0.6-1.9,0.6-3s-0.2-2.1-0.6-3c-0.4-0.9-0.9-1.8-1.6-2.5
		c-0.7-0.7-1.5-1.3-2.5-1.7c-0.9-0.4-1.9-0.6-3-0.6s-2.1,0.2-3,0.6c-0.9,0.4-1.7,1-2.4,1.7c-0.7,0.7-1.3,1.5-1.7,2.5
		c-0.4,0.9-0.6,1.9-0.6,3s0.2,2.1,0.6,3c0.4,0.9,1,1.8,1.7,2.4C224,279.9,224.9,280.5,225.8,280.9z"/>
	<path class="st2" d="M254.7,275.3c-1.3,3-2.6,6-3.9,9.1c-1.3-3.1-2.6-6.1-3.9-9.1c-1.3-3-2.6-6-3.9-9.1h-2.4V264h6.8v2.2h-2
		c0.9,2,1.7,4.1,2.6,6.1c0.8,2,1.7,4.1,2.6,6.1l0.3,0.9l0.3-0.9c0.9-2,1.7-4.1,2.6-6.1s1.7-4.1,2.6-6.1h-1.6V264h6.8v2.2h-2.8
		C257.3,269.2,256,272.3,254.7,275.3z"/>
	<path class="st2" d="M257.2,283.5v-2.2h2.3c1.3-3.1,2.6-6.1,3.9-9.1s2.6-6,3.9-9.1c1.3,3.1,2.6,6.1,3.9,9.1c1.3,3,2.6,6,3.9,9.1
		h2.3v2.2H271v-2.2h1.6c-0.4-0.9-0.8-1.9-1.2-2.8c-0.4-0.9-0.8-1.8-1.2-2.8h-6.1c-0.5,1.2-0.9,2.1-1.2,2.8s-0.7,1.5-1.2,2.8h1.6v2.2
		H257.2z M265.9,271.4c-0.3,0.8-0.6,1.5-0.9,2.2h4.2l-1.9-4.4l-0.3-0.9c-0.1,0.3-0.1,0.5-0.2,0.6c0,0.1-0.1,0.2-0.1,0.3
		C266.6,269.9,266.2,270.6,265.9,271.4z"/>
</g>
</svg>
